<svg xmlns="http://www.w3.org/2000/svg" viewBox="0 0 1311.08 274.97"><defs><style>.cls-1{fill:#000531;}</style></defs><title>Sharehouse</title><g id="Layer_2" data-name="Layer 2"><g id="Layer_1-2" data-name="Layer 1"><polygon class="cls-1" points="0 73.73 146.48 0 282.04 67.83 261.5 82.56 146.48 25.05 22.04 87.57 22.39 244.97 0 261.2 0 73.73"/><polygon class="cls-1" points="1311.08 86.92 1311.08 274.96 1036.72 274.96 1067.52 252.68 1288.94 252.68 1288.94 102.98 1311.08 86.92"/><path class="cls-1" d="M31.73,217.8a6.09,6.09,0,0,1-1-2,3.51,3.51,0,0,1,0-2.07,5.72,5.72,0,0,1,1.5-2.22l16-15.24a4,4,0,0,1,2.8-1.35,4.71,4.71,0,0,1,2.17.58,10.61,10.61,0,0,1,2.17,1.54q2.6,2.13,5.83,4.68a62,62,0,0,0,6.9,4.73,44.44,44.44,0,0,0,7.72,3.62,24.47,24.47,0,0,0,8.3,1.45,23.5,23.5,0,0,0,7.72-1.06,12.5,12.5,0,0,0,4.73-2.8,9,9,0,0,0,2.36-4.1,19.4,19.4,0,0,0,.63-5,7.52,7.52,0,0,0-2-5.16,19.58,19.58,0,0,0-5-4,47,47,0,0,0-6.27-2.94q-3.28-1.25-5.79-2.12A139.6,139.6,0,0,1,60.86,176a62.51,62.51,0,0,1-14.23-10A38.47,38.47,0,0,1,38,153.84a36.08,36.08,0,0,1-2.94-14.76,33.31,33.31,0,0,1,3.67-15.63,35.25,35.25,0,0,1,10.28-12,49.65,49.65,0,0,1,15.82-7.72A71.11,71.11,0,0,1,85.22,101a63.58,63.58,0,0,1,12.69,1.3A69.34,69.34,0,0,1,110.25,106a67.19,67.19,0,0,1,11.09,5.74,43.26,43.26,0,0,1,8.73,7.28,6.64,6.64,0,0,1,1.93,4.24,6.25,6.25,0,0,1-2.22,4.24l-14.18,15.15a4.25,4.25,0,0,1-3,1.45,4.48,4.48,0,0,1-2.41-.72,21.09,21.09,0,0,1-2.41-1.78,48,48,0,0,0-10.32-7.23,26.42,26.42,0,0,0-12.16-2.7,31.45,31.45,0,0,0-5.21.43,15,15,0,0,0-4.68,1.54,9.87,9.87,0,0,0-3.38,2.9,7.23,7.23,0,0,0-1.3,4.39,7.14,7.14,0,0,0,1.45,4.48,14,14,0,0,0,4.25,3.47,47.55,47.55,0,0,0,6.8,3.09q4,1.5,9,3.13,9.84,3.28,18,6.85a58,58,0,0,1,14,8.44A34.28,34.28,0,0,1,133.31,182q3.23,6.75,3.23,16.4a41.84,41.84,0,0,1-4,18.43A41.36,41.36,0,0,1,121.45,231a51.32,51.32,0,0,1-16.74,9,66.77,66.77,0,0,1-21,3.18,54.61,54.61,0,0,1-14.18-1.88,74.49,74.49,0,0,1-13.55-5.06,78.31,78.31,0,0,1-12.25-7.43,81.35,81.35,0,0,1-10.37-9.07C32.74,219.09,32.21,218.45,31.73,217.8Z"/><path class="cls-1" d="M228.38,179.6a36.36,36.36,0,0,0-1.4-10.51,23.55,23.55,0,0,0-3.91-7.82,16.59,16.59,0,0,0-6-4.82,17.38,17.38,0,0,0-7.52-1.64,19.72,19.72,0,0,0-7.57,1.45,16.23,16.23,0,0,0-6.08,4.34,21.35,21.35,0,0,0-4.05,7.14,29.85,29.85,0,0,0-1.5,9.93V237.1a4.45,4.45,0,0,1-1.11,3.13,4.17,4.17,0,0,1-3.23,1.21H159.21q-4.34,0-4.34-4.34V93.26A4.15,4.15,0,0,1,156.08,90a4.57,4.57,0,0,1,3.13-1.06H186a4.14,4.14,0,0,1,4.34,4.34v42.25a66.28,66.28,0,0,1,13.51-9.65,32.45,32.45,0,0,1,15.63-4q13.6,0,22.24,4.73a35.07,35.07,0,0,1,13.55,13A55,55,0,0,1,262,159.05a149.52,149.52,0,0,1,1.83,24.12V237.1a4.45,4.45,0,0,1-1.11,3.13,4.17,4.17,0,0,1-3.23,1.21H232.72q-4.34,0-4.34-4.34Z"/><path class="cls-1" d="M406.17,237.29q0,4.15-4.15,4.15H380.9a3.77,3.77,0,0,1-2.56-1,9.34,9.34,0,0,1-1.93-2.36,19.94,19.94,0,0,1-1.4-2.9q-.58-1.49-1-2.55l-1.25-3.28a46.35,46.35,0,0,1-14.47,10.33,41.9,41.9,0,0,1-17.46,3.67A59.35,59.35,0,0,1,318.43,239a58.3,58.3,0,0,1-32.12-31.45,62.72,62.72,0,0,1,12.25-67.77,58.48,58.48,0,0,1,18.86-13A57.72,57.72,0,0,1,340.86,122,42.17,42.17,0,0,1,360,126.2a46.14,46.14,0,0,1,14.56,11.43l3.67-10.23a13.92,13.92,0,0,1,1.45-3.18,3.12,3.12,0,0,1,2.7-1H402q4.15,0,4.15,4.15ZM368.6,171.4a29.59,29.59,0,0,0-6-9.31,28.86,28.86,0,0,0-9-6.37,26.43,26.43,0,0,0-11.14-2.36A26.72,26.72,0,0,0,332,155.48a27.16,27.16,0,0,0-8.83,6,29,29,0,0,0-6.08,9.21,30.26,30.26,0,0,0-2.27,11.91,31.26,31.26,0,0,0,2.12,11.62,29,29,0,0,0,5.79,9.26,26.2,26.2,0,0,0,8.78,6.13,27.29,27.29,0,0,0,11,2.22,26.43,26.43,0,0,0,11.14-2.36,29.27,29.27,0,0,0,9-6.32,28.9,28.9,0,0,0,6-9.31,29.63,29.63,0,0,0,2.17-11.24A29.27,29.27,0,0,0,368.6,171.4Z"/><path class="cls-1" d="M428.07,127.51q0-4.24,4.15-4.24H448a10.21,10.21,0,0,1,3.81.68q1.69.67,3.13,4.15L459,138.41q2.9-3.18,5.64-6.13a38.41,38.41,0,0,1,6-5.21,27.79,27.79,0,0,1,7.33-3.62,31,31,0,0,1,9.7-1.35A33.84,33.84,0,0,1,498.88,124a58.63,58.63,0,0,1,9.79,4.39,67.07,67.07,0,0,1,7.53,4.92q3.13,2.41,4.29,3.47,2.41,2.12,2.41,3.81a6.41,6.41,0,0,1-1.35,3.62l-12.06,17.07a3.54,3.54,0,0,1-2.89,1.83,4.62,4.62,0,0,1-3-1.35q-1.25-1.06-3-2.6a28.71,28.71,0,0,0-4.15-2.94,26.57,26.57,0,0,0-5.35-2.36,21.68,21.68,0,0,0-6.66-1,24.28,24.28,0,0,0-8,1.3,18.8,18.8,0,0,0-6.61,3.91,18.26,18.26,0,0,0-4.48,6.51,23.16,23.16,0,0,0-1.64,9v63.67q0,4.15-4.24,4.15h-27.2q-4.15,0-4.15-4.15Z"/><path class="cls-1" d="M614.83,202.66a3,3,0,0,1,2.6,1.35l11.87,16.4a6,6,0,0,1,1.45,3.42,3.76,3.76,0,0,1-1.64,2.85,71.09,71.09,0,0,1-11.48,8.4,61.53,61.53,0,0,1-11.19,5.11,56.8,56.8,0,0,1-10.9,2.5,87.22,87.22,0,0,1-10.8.68,57.07,57.07,0,0,1-23-4.78,62.66,62.66,0,0,1-32.66-32.22,56.85,56.85,0,0,1-5-23.59,63.56,63.56,0,0,1,4.34-23.54A58.93,58.93,0,0,1,540.7,140a57.2,57.2,0,0,1,18.86-13,60.17,60.17,0,0,1,24.21-4.78,51.84,51.84,0,0,1,11.72,1.45,54.24,54.24,0,0,1,12.3,4.53A59.39,59.39,0,0,1,619.46,136a50.87,50.87,0,0,1,9.84,11.43,60.15,60.15,0,0,1,6.8,15.24,67.58,67.58,0,0,1,2.56,19.3,20.91,20.91,0,0,1-.72,6.08,6.55,6.55,0,0,1-2.41,3.52,10.09,10.09,0,0,1-4.29,1.64,39.28,39.28,0,0,1-6.37.44H558.11a30,30,0,0,0,3.86,8.49,26.43,26.43,0,0,0,6,6.42,26.84,26.84,0,0,0,7.72,4.1,27.3,27.3,0,0,0,8.88,1.45,47.44,47.44,0,0,0,11-1.06,32.71,32.71,0,0,0,7.38-2.65,27.1,27.1,0,0,0,5.16-3.42q2.12-1.83,4.24-3.47A4.39,4.39,0,0,1,614.83,202.66Zm-39.55-51.13a24.2,24.2,0,0,0-6.37,3.67,27.25,27.25,0,0,0-5.11,5.4,39.78,39.78,0,0,0-3.86,6.66h46.79a30.44,30.44,0,0,0-9.84-12.64,23.71,23.71,0,0,0-14.18-4.43A20.34,20.34,0,0,0,575.28,151.53Z"/><path class="cls-1" d="M732.43,179.6a36.36,36.36,0,0,0-1.4-10.51,23.47,23.47,0,0,0-3.91-7.82,16.56,16.56,0,0,0-6-4.82,17.37,17.37,0,0,0-7.53-1.64,19.71,19.71,0,0,0-7.57,1.45A16.27,16.27,0,0,0,700,160.6a21.38,21.38,0,0,0-4.05,7.14,29.86,29.86,0,0,0-1.49,9.93V237.1a4.44,4.44,0,0,1-1.11,3.13,4.16,4.16,0,0,1-3.23,1.21H663.26q-4.34,0-4.34-4.34V93.26A4.15,4.15,0,0,1,660.12,90a4.57,4.57,0,0,1,3.13-1.06h26.82a4.14,4.14,0,0,1,4.34,4.34v42.25a66.27,66.27,0,0,1,13.5-9.65,32.46,32.46,0,0,1,15.63-4q13.6,0,22.24,4.73a35.09,35.09,0,0,1,13.55,13,55,55,0,0,1,6.75,19.44,149.75,149.75,0,0,1,1.83,24.12V237.1a4.46,4.46,0,0,1-1.11,3.13,4.17,4.17,0,0,1-3.23,1.21H736.77q-4.34,0-4.34-4.34Z"/><path class="cls-1" d="M790.06,159.05a61,61,0,0,1,32.46-32.22,61.77,61.77,0,0,1,47.51,0,61.15,61.15,0,0,1,32.51,32.27,60.23,60.23,0,0,1,0,47.13A61.42,61.42,0,0,1,870,238.59a61.35,61.35,0,0,1-47.46,0,62.38,62.38,0,0,1-19.39-13,60.48,60.48,0,0,1-13.07-19.3,60.92,60.92,0,0,1,0-47.27Zm31.16,34.88a30.06,30.06,0,0,0,5.5,9.41,25.77,25.77,0,0,0,8.49,6.42,25.37,25.37,0,0,0,11,2.36,24.62,24.62,0,0,0,11-2.41,27,27,0,0,0,8.49-6.46,29,29,0,0,0,5.5-9.36,33.4,33.4,0,0,0,0-22.38,29.46,29.46,0,0,0-5.45-9.36,25.92,25.92,0,0,0-8.44-6.42,25,25,0,0,0-11-2.36,25.37,25.37,0,0,0-11,2.36,26.54,26.54,0,0,0-8.54,6.37,29,29,0,0,0-5.55,9.31,33.09,33.09,0,0,0,0,22.53Z"/><path class="cls-1" d="M1001.28,127.6a3.91,3.91,0,0,1,1.11-3.28,4.87,4.87,0,0,1,3.33-1.06h26.82q4.34,0,4.34,4.34V237.1q0,4.34-4.34,4.34h-17.17a6.4,6.4,0,0,1-4.15-1.59,7.21,7.21,0,0,1-2.51-3.71l-2.7-10.33a41.55,41.55,0,0,1-17.22,13.7,46.29,46.29,0,0,1-9.79,2.94,55.69,55.69,0,0,1-10,.92,48.74,48.74,0,0,1-8.63-.87,42.34,42.34,0,0,1-9.65-3,43.54,43.54,0,0,1-9.46-5.84,36.58,36.58,0,0,1-8.1-9.31,51.14,51.14,0,0,1-5.7-13.46,68.61,68.61,0,0,1-2.17-18.23V127.51q0-4.24,4.24-4.24h26.24q4.24,0,4.24,4.24v62.61a20.21,20.21,0,0,0,1.5,7.72,19.74,19.74,0,0,0,4.24,6.46,20.12,20.12,0,0,0,6.66,4.44,22.61,22.61,0,0,0,8.83,1.64,24.17,24.17,0,0,0,5.74-.87,19.28,19.28,0,0,0,6.61-3.19,19.7,19.7,0,0,0,5.45-6.27,20.2,20.2,0,0,0,2.27-10.13Z"/><path class="cls-1" d="M1055.74,222.19a5.88,5.88,0,0,1-.82-2.08,4.2,4.2,0,0,1,.19-2.17,6.56,6.56,0,0,1,1.64-2.36l13-12.73a3.49,3.49,0,0,1,2.51-1.16,5.9,5.9,0,0,1,3.57,1.74q2.32,2,4.92,4a36.94,36.94,0,0,0,5.5,3.38,34.08,34.08,0,0,0,6,2.32,23.05,23.05,0,0,0,6.27.87,24.81,24.81,0,0,0,6.08-.62,10.78,10.78,0,0,0,3.86-1.74,6,6,0,0,0,2-2.6,8.84,8.84,0,0,0,.58-3.23,7.39,7.39,0,0,0-.72-3.42,7,7,0,0,0-2.75-2.6,32.63,32.63,0,0,0-5.55-2.46q-3.52-1.25-9.21-2.9a75.87,75.87,0,0,1-15.34-6.17,38.73,38.73,0,0,1-10.66-8.39,31.49,31.49,0,0,1-6.22-11,45.56,45.56,0,0,1-2-14.14,29.9,29.9,0,0,1,2.94-13.21,29.42,29.42,0,0,1,8.59-10.47A42.49,42.49,0,0,1,1084,124a64.48,64.48,0,0,1,18.76-2.51,50.69,50.69,0,0,1,13.65,1.64,46.24,46.24,0,0,1,10.28,4.15,45.68,45.68,0,0,1,7.77,5.45q3.33,2.95,6.12,5.55a5.46,5.46,0,0,1,2.08,3.37q.14,1.64-2.17,3.67L1126.3,157.7a5.06,5.06,0,0,1-3,1.45,5.28,5.28,0,0,1-3.09-1.54q-1.64-1.35-3.33-2.7a22.51,22.51,0,0,0-3.62-2.36,20.19,20.19,0,0,0-9.65-2.27q-5.5,0-8.15,1.73t-2.65,4a5,5,0,0,0,1.21,3.52,10.88,10.88,0,0,0,4.05,2.41q2.84,1.11,7.48,2.41t11.38,3.52a51.29,51.29,0,0,1,15,7.33,35.91,35.91,0,0,1,9,9.36,31.78,31.78,0,0,1,4.34,10.42,50.88,50.88,0,0,1,1.16,10.71,33.82,33.82,0,0,1-3.81,16.25,37.15,37.15,0,0,1-10.13,12,46,46,0,0,1-14.42,7.43,55.4,55.4,0,0,1-16.79,2.56,80.61,80.61,0,0,1-11.77-.87,51.31,51.31,0,0,1-22.57-9.21,49.52,49.52,0,0,1-9.93-9.7A21.32,21.32,0,0,1,1055.74,222.19Z"/><path class="cls-1" d="M1253.26,202.66a3.05,3.05,0,0,1,2.6,1.35l11.86,16.4a6,6,0,0,1,1.45,3.42,3.77,3.77,0,0,1-1.64,2.85,71.2,71.2,0,0,1-11.48,8.4,61.59,61.59,0,0,1-11.19,5.11,56.76,56.76,0,0,1-10.9,2.5,87.25,87.25,0,0,1-10.8.68,57.07,57.07,0,0,1-23-4.78,62.67,62.67,0,0,1-32.65-32.22,56.78,56.78,0,0,1-5-23.59,63.51,63.51,0,0,1,4.34-23.54,59,59,0,0,1,12.2-19.25A57.2,57.2,0,0,1,1198,127a60.15,60.15,0,0,1,24.21-4.78,51.81,51.81,0,0,1,11.72,1.45,54.25,54.25,0,0,1,12.3,4.53,59.46,59.46,0,0,1,11.67,7.86,51,51,0,0,1,9.84,11.43,60.23,60.23,0,0,1,6.8,15.24,67.65,67.65,0,0,1,2.55,19.3,20.91,20.91,0,0,1-.72,6.08,6.57,6.57,0,0,1-2.41,3.52,10.12,10.12,0,0,1-4.29,1.64,39.35,39.35,0,0,1-6.37.44h-66.75a30,30,0,0,0,3.86,8.49,26.52,26.52,0,0,0,6,6.42,26.9,26.9,0,0,0,7.72,4.1,27.29,27.29,0,0,0,8.87,1.45,47.46,47.46,0,0,0,11-1.06,32.67,32.67,0,0,0,7.38-2.65,27,27,0,0,0,5.16-3.42q2.12-1.83,4.25-3.47A4.38,4.38,0,0,1,1253.26,202.66Zm-39.56-51.13a24.25,24.25,0,0,0-6.37,3.67,27.19,27.19,0,0,0-5.11,5.4,39.93,39.93,0,0,0-3.86,6.66h46.79a30.43,30.43,0,0,0-9.84-12.64,23.72,23.72,0,0,0-14.18-4.43A20.36,20.36,0,0,0,1213.7,151.53Z"/></g></g></svg>